<svg xmlns="http://www.w3.org/2000/svg" xmlns:xlink="http://www.w3.org/1999/xlink" version="1.1" width="533.2" height="444.1" viewBox="0 0 533.2 444.1">
<defs>
<clipPath id="clip_0">
<path transform="matrix(.45,0,0,.45,140.84999,261)" d="M-313.4-580H871.7V407.9H-313.4Z"/>
</clipPath>
<clipPath id="clip_1">
<path transform="matrix(.45,0,0,.45,140.84999,261)" d="M-313.4-580H871.7V407.9H-313.4Z"/>
</clipPath>
<clipPath id="clip_2">
<path transform="matrix(.45,0,0,.45,140.84999,261)" d="M-313.4-580H871.7V407.9H-313.4Z"/>
</clipPath>
<clipPath id="clip_3">
<path transform="matrix(.45,0,0,.45,140.84999,261)" d="M-313.4-580H871.7V407.9H-313.4Z"/>
</clipPath>
<clipPath id="clip_4">
<path transform="matrix(.45,0,0,.45,140.84999,261)" d="M-313.4-580H871.7V407.9H-313.4Z"/>
</clipPath>
<clipPath id="clip_5">
<path transform="matrix(.45,0,0,.45,140.84999,261)" d="M-313.4-580H871.7V407.9H-313.4Z"/>
</clipPath>
<clipPath id="clip_6">
<path transform="matrix(.45,0,0,.45,140.84999,261)" d="M-313.4-580H871.7V407.9H-313.4Z"/>
</clipPath>
<clipPath id="clip_7">
<path transform="matrix(.45,0,0,.45,140.84999,261)" d="M-313.4-580H871.7V407.9H-313.4Z"/>
</clipPath>
<clipPath id="clip_8">
<path transform="matrix(.45,0,0,.45,140.84999,261)" d="M-313.4-580H871.7V407.9H-313.4Z"/>
</clipPath>
<clipPath id="clip_9">
<path transform="matrix(.45,0,0,.45,140.84999,261)" d="M-313.4-580H871.7V407.9H-313.4Z"/>
</clipPath>
<clipPath id="clip_10">
<path transform="matrix(.45,0,0,.45,140.84999,261)" d="M-313.4-580H871.7V407.9H-313.4Z"/>
</clipPath>
<clipPath id="clip_11">
<path transform="matrix(.45,0,0,.45,140.84999,261)" d="M-313.4-580H871.7V407.9H-313.4Z"/>
</clipPath>
<clipPath id="clip_12">
<path transform="matrix(.45,0,0,.45,140.84999,261)" d="M-313.4-580H871.7V407.9H-313.4Z"/>
</clipPath>
<clipPath id="clip_13">
<path transform="matrix(.45,0,0,.45,140.84999,261)" d="M-313.4-580H871.7V407.9H-313.4Z"/>
</clipPath>
</defs>
<path transform="matrix(.45,0,0,.45,0,0)" d="M0 0H1185V987H0Z" fill="#ffffff"/>
<path transform="matrix(.45,0,0,.45,140.84999,261)" stroke-width="6" stroke-linecap="butt" stroke-miterlimit="4" stroke-linejoin="miter" fill="none" stroke="#5e5e5e" d="M58.7-290.7V-360H561.9V-290.7"/>
<path transform="matrix(.45,0,0,.45,140.84999,261)" d="M61.6-287.7H55.7V-290.8H61.6Z" fill="#5e5e5e"/>
<path transform="matrix(.45,0,0,.45,140.84999,261)" stroke-width=".05" stroke-linecap="butt" stroke-miterlimit="4" stroke-linejoin="miter" fill="none" stroke="#5e5e5e" d="M61.6-287.7H55.7V-290.8H61.6Z"/>
<path transform="matrix(.45,0,0,.45,140.84999,261)" d="M564.8-287.7H558.9V-290.8H564.8Z" fill="#5e5e5e"/>
<path transform="matrix(.45,0,0,.45,140.84999,261)" stroke-width=".05" stroke-linecap="butt" stroke-miterlimit="4" stroke-linejoin="miter" fill="none" stroke="#5e5e5e" d="M564.8-287.7H558.9V-290.8H564.8Z"/>
<path transform="matrix(.45,0,0,.45,140.84999,261)" stroke-width="10" stroke-linecap="butt" stroke-miterlimit="4" stroke-linejoin="miter" fill="none" stroke="#5e5e5e" d="M388.8 103.4V160L596.3 157.9"/>
<path transform="matrix(.45,0,0,.45,140.84999,261)" d="M393.8 103.5H383.8V98.4H393.8Z" fill="#5e5e5e"/>
<path transform="matrix(.45,0,0,.45,140.84999,261)" stroke-width=".05" stroke-linecap="butt" stroke-miterlimit="4" stroke-linejoin="miter" fill="none" stroke="#5e5e5e" d="M393.8 103.5H383.8V98.4H393.8Z"/>
<path transform="matrix(.45,0,0,.45,140.84999,261)" d="M615.6 157.7 601.3 162.5V153.2Z" fill="#5e5e5e"/>
<path transform="matrix(.45,0,0,.45,140.84999,261)" stroke-width="10" stroke-linecap="butt" stroke-miterlimit="4" stroke-linejoin="miter" fill="none" stroke="#5e5e5e" d="M615.6 157.7 601.3 162.5V153.2Z"/>
<g clip-path="url(#clip_0)">
<path transform="matrix(.45,0,0,.45,59.84999,131.535)" stroke-width="10" stroke-linecap="round" stroke-miterlimit="4" stroke-linejoin="miter" fill="none" stroke="#282c33" d="M5 5H295"/>
</g>
<g clip-path="url(#clip_1)">
<path transform="matrix(.45,0,0,.45,55.34999,29.61)" d="M140 67.1C140 104.2 108.7 134.3 70 134.3 31.3 134.3 0 104.2 0 67.1 0 30.1 31.3 0 70 0 108.7 0 140 30.1 140 67.1Z" fill="#ffffff"/>
<path transform="matrix(.45,0,0,.45,55.34999,29.61)" stroke-width="10" stroke-linecap="butt" stroke-miterlimit="4" stroke-linejoin="miter" fill="none" stroke="#282c33" d="M140 67.1C140 104.2 108.7 134.3 70 134.3 31.3 134.3 0 104.2 0 67.1 0 30.1 31.3 0 70 0 108.7 0 140 30.1 140 67.1Z"/>
<path transform="matrix(.0416655,0,0,.0416655,74.76299,63.193498)" d="M30-248C117-247 221-263 221-173 221-95 144-93 63-97V-48.5 0H30V-124-248ZM63-123C120-123 187-112 187-173 187-232 119-220 63-221V-172-123Z" fill="#282c33"/>
<path transform="matrix(.0416655,0,0,.0416655,84.76271,63.193498)" d="M177-190C167-65 218 103 67 71 44 65 29 51 23 28L55 23C70 70 155 55 144-5V-20-35C133-14 115 1 83 1 29 1 15-40 15-95 15-151 31-192 86-193 115-194 134-177 145-158 146-168 145-181 147-190H177ZM94-22C130-22 144-54 144-95 144-137 130-170 94-170 55-170 48-136 48-95 48-54 54-22 94-22Z" fill="#282c33"/>
<path transform="matrix(.029164499,0,0,.029164499,93.09599,65.2932)" d="M27 0V-13.5-27H91V-122-217L35-178V-192.5-207L93-248H122V-137.5-27H183V-13.5 0H27Z" fill="#282c33"/>
</g>
<path transform="matrix(.45,0,0,.45,140.84999,261)" stroke-width="6" stroke-linecap="butt" stroke-miterlimit="4" stroke-linejoin="miter" fill="none" stroke="#5e5e5e" d="M-120-372V-290.7"/>
<path transform="matrix(.45,0,0,.45,140.84999,261)" d="M-120-375-117-375.1V-371.9H-123V-375.1Z" fill="#5e5e5e"/>
<path transform="matrix(.45,0,0,.45,140.84999,261)" stroke-width=".05" stroke-linecap="butt" stroke-miterlimit="4" stroke-linejoin="miter" fill="none" stroke="#5e5e5e" d="M-120-375-117-375.1V-371.9H-123V-375.1Z"/>
<path transform="matrix(.45,0,0,.45,140.84999,261)" d="M-117-287.7H-123V-290.8H-117Z" fill="#5e5e5e"/>
<path transform="matrix(.45,0,0,.45,140.84999,261)" stroke-width=".05" stroke-linecap="butt" stroke-miterlimit="4" stroke-linejoin="miter" fill="none" stroke="#5e5e5e" d="M-117-287.7H-123V-290.8H-117Z"/>
<g clip-path="url(#clip_2)">
<path transform="matrix(.066645,0,0,.066645,47.11499,143.172)" d="M27 0V-13.5-27H91V-122-217L35-178V-192.5-207L93-248H122V-137.5-27H183V-13.5 0H27Z" fill="#282c33"/>
</g>
<g clip-path="url(#clip_3)">
<path transform="matrix(.45,0,0,.45,365.84999,131.535)" stroke-width="10" stroke-linecap="round" stroke-miterlimit="4" stroke-linejoin="miter" fill="none" stroke="#282c33" d="M5 5H295"/>
</g>
<g clip-path="url(#clip_4)">
<path transform="matrix(.066645,0,0,.066645,350.14497,143.172)" d="M101-251C183-258 194-164 144-119L82-64C71-53 59-42 53-27H182V-13.5 0H18C20-99 146-94 146-182 146-210 130-225 101-225 72-225 55-210 52-184L20-187C26-228 54-247 101-251Z" fill="#282c33"/>
</g>
<g clip-path="url(#clip_5)">
<path transform="matrix(.45,0,0,.45,222.70499,300.7575)" stroke-width="10" stroke-linecap="round" stroke-miterlimit="4" stroke-linejoin="miter" fill="none" stroke="#282c33" d="M5 5H295"/>
</g>
<g clip-path="url(#clip_6)">
<path transform="matrix(.066645,0,0,.066645,207.04048,310.05448)" d="M126-127C159-121 184-107 184-68 184 20 45 24 20-39 17-47 15-55 14-64L46-67C52-40 67-23 100-23 132-23 152-38 152-69 152-107 116-115 73-112V-126-140C112-139 145-144 145-182 145-209 128-225 99-225 71-225 52-210 50-184L18-187C24-229 53-250 99-251 147-252 178-230 178-186 178-150 157-134 126-127Z" fill="#282c33"/>
</g>
<path transform="matrix(.45,0,0,.45,140.84999,261)" stroke-width="6" stroke-linecap="butt" stroke-miterlimit="4" stroke-linejoin="miter" fill="none" stroke="#5e5e5e" d="M3-274.7 3.3-220 240 20 240.7 85.4"/>
<path transform="matrix(.45,0,0,.45,140.84999,261)" d="M5.9-274.7 0-274.6V-277.7H5.9Z" fill="#5e5e5e"/>
<path transform="matrix(.45,0,0,.45,140.84999,261)" stroke-width=".05" stroke-linecap="butt" stroke-miterlimit="4" stroke-linejoin="miter" fill="none" stroke="#5e5e5e" d="M5.9-274.7 0-274.6V-277.7H5.9Z"/>
<path transform="matrix(.45,0,0,.45,140.84999,261)" d="M243.7 88.4H237.7V85.3H243.6Z" fill="#5e5e5e"/>
<path transform="matrix(.45,0,0,.45,140.84999,261)" stroke-width=".05" stroke-linecap="butt" stroke-miterlimit="4" stroke-linejoin="miter" fill="none" stroke="#5e5e5e" d="M243.7 88.4H237.7V85.3H243.6Z"/>
<path transform="matrix(.45,0,0,.45,140.84999,261)" stroke-width="6" stroke-linecap="butt" stroke-miterlimit="4" stroke-linejoin="miter" fill="none" stroke="#5e5e5e" d="M660-274.7V-220L420 20 420.2 85.4"/>
<path transform="matrix(.45,0,0,.45,140.84999,261)" d="M663-274.6H657.1V-277.7H663Z" fill="#5e5e5e"/>
<path transform="matrix(.45,0,0,.45,140.84999,261)" stroke-width=".05" stroke-linecap="butt" stroke-miterlimit="4" stroke-linejoin="miter" fill="none" stroke="#5e5e5e" d="M663-274.6H657.1V-277.7H663Z"/>
<path transform="matrix(.45,0,0,.45,140.84999,261)" d="M423.2 88.4H417.3V85.3H423.2Z" fill="#5e5e5e"/>
<path transform="matrix(.45,0,0,.45,140.84999,261)" stroke-width=".05" stroke-linecap="butt" stroke-miterlimit="4" stroke-linejoin="miter" fill="none" stroke="#5e5e5e" d="M423.2 88.4H417.3V85.3H423.2Z"/>
<g clip-path="url(#clip_7)">
<path transform="matrix(.05553,0,0,.05553,441.94499,335.331)" d="M27 0V-13.5-27H91V-122-217L35-178V-192.5-207L93-248H122V-137.5-27H183V-13.5 0H27Z" fill="#282c33"/>
<path transform="matrix(.05553,0,0,.05553,453.05097,335.331)" d="M101-251C169-251 186-196 186-124 186-52 166 4 100 4 33 4 14-52 14-124 14-197 31-251 101-251ZM100-22C147-22 154-71 154-124 154-177 150-226 101-226 50-226 46-178 46-124 46-71 51-22 100-22Z" fill="#282c33"/>
<path transform="matrix(.05553,0,0,.05553,464.15699,335.331)" d="M101-251C169-251 186-196 186-124 186-52 166 4 100 4 33 4 14-52 14-124 14-197 31-251 101-251ZM100-22C147-22 154-71 154-124 154-177 150-226 101-226 50-226 46-178 46-124 46-71 51-22 100-22Z" fill="#282c33"/>
<path transform="matrix(.05553,0,0,.05553,475.26298,335.331)" d="" fill="#282c33"/>
<path transform="matrix(.05553,0,0,.05553,480.82499,335.331)" d="M240 0 242-218C219-142 188-73 162 0H139L58-218 59 0H30V-124-248H74L151-37C172-112 202-177 227-248H270V-124 0H240Z" fill="#282c33"/>
<path transform="matrix(.05553,0,0,.05553,497.42848,335.331)" d="M266 0H226L170-210 115 0H75L2-248H37L96-30 111-94 154-248H186L245-30 304-248H339Z" fill="#282c33"/>
</g>
<g clip-path="url(#clip_8)">
<path transform="matrix(.029461107,.029461107,-.029461107,.029461107,160.10123,166.67986)" d="M101-234C70-243 59-224 63-190H101V-178.5-167H63V-83.5 0H32V-83.5-167H5V-178.5-190H32C25-242 49-272 101-258V-246-234Z" fill="#282c33"/>
<path transform="matrix(.029461107,.029461107,-.029461107,.029461107,163.04734,169.62596)" d="M24 0V-130.5-261H56V-130.5 0H24Z" fill="#282c33"/>
<path transform="matrix(.029461107,.029461107,-.029461107,.029461107,165.37477,171.9534)" d="M100-194C162-195 185-157 185-95 186-32 158 4 99 4 40 4 16-35 15-95 15-161 43-194 100-194ZM99-20C143-19 152-51 152-95 152-138 144-170 101-170 58-170 48-138 48-95 48-52 58-21 99-20Z" fill="#282c33"/>
<path transform="matrix(.029461107,.029461107,-.029461107,.029461107,171.26699,177.84561)" d="M206 0H170L130-164 89 0H53L-1-190H31L70-26 113-190H147L188-26 230-190H261Z" fill="#282c33"/>
<path transform="matrix(.029461107,.029461107,-.029461107,.029461107,178.89742,185.47605)" d="" fill="#282c33"/>
<path transform="matrix(.029461107,.029461107,-.029461107,.029461107,181.82717,188.40579)" d="M24 0V-130.5-261H56V-130.5 0H24Z" fill="#282c33"/>
<path transform="matrix(.029461107,.029461107,-.029461107,.029461107,184.15459,190.73322)" d="M24-231V-246-261H56V-246-231H24ZM24 0V-95-190H56V-95 0H24Z" fill="#282c33"/>
<path transform="matrix(.029461107,.029461107,-.029461107,.029461107,186.48203,193.06066)" d="M210-169C143-166 172-64 166 0H135V-60.5-121C135-150 130-171 100-169 34-165 62-65 56 0H25L24-190H54C55-180 53-166 56-158 66-202 155-208 163-158 174-179 190-193 221-194 306-196 268-75 276 0H245V-60.5-121C245-150 240-170 210-169Z" fill="#282c33"/>
<path transform="matrix(.029461107,.029461107,-.029461107,.029461107,195.2909,201.86952)" d="M24-231V-246-261H56V-246-231H24ZM24 0V-95-190H56V-95 0H24Z" fill="#282c33"/>
<path transform="matrix(.029461107,.029461107,-.029461107,.029461107,197.61832,204.19695)" d="M59-47C57-23 77-18 97-25V-13-1C64 9 27 4 27-40V-103.5-167H5V-178.5-190H29L38-233H59V-211.5-190H94V-178.5-167H59V-107-47Z" fill="#282c33"/>
<path transform="matrix(.029461107,.029461107,-.029461107,.029461107,200.56443,207.14305)" d="" fill="#282c33"/>
<path transform="matrix(.029461107,.029461107,-.029461107,.029461107,203.52764,210.10626)" d="M18-150V-163-176H192V-163-150H18ZM18-60V-73-86H192V-73-60H18Z" fill="#282c33"/>
<path transform="matrix(.029461107,.029461107,-.029461107,.029461107,209.71446,216.29309)" d="" fill="#282c33"/>
<path transform="matrix(.029461107,.029461107,-.029461107,.029461107,212.65967,219.23828)" d="M27 0V-13.5-27H91V-122-217L35-178V-192.5-207L93-248H122V-137.5-27H183V-13.5 0H27Z" fill="#282c33"/>
<path transform="matrix(.029461107,.029461107,-.029461107,.029461107,218.5519,225.13051)" d="M101-251C169-251 186-196 186-124 186-52 166 4 100 4 33 4 14-52 14-124 14-197 31-251 101-251ZM100-22C147-22 154-71 154-124 154-177 150-226 101-226 50-226 46-178 46-124 46-71 51-22 100-22Z" fill="#282c33"/>
<path transform="matrix(.029461107,.029461107,-.029461107,.029461107,224.4441,231.02272)" d="" fill="#282c33"/>
<path transform="matrix(.029461107,.029461107,-.029461107,.029461107,227.39182,233.97043)" d="M240 0 242-218C219-142 188-73 162 0H139L58-218 59 0H30V-124-248H74L151-37C172-112 202-177 227-248H270V-124 0H240Z" fill="#282c33"/>
<path transform="matrix(.029461107,.029461107,-.029461107,.029461107,236.20069,242.7793)" d="M266 0H226L170-210 115 0H75L2-248H37L96-30 111-94 154-248H186L245-30 304-248H339Z" fill="#282c33"/>
</g>
<g clip-path="url(#clip_9)">
<path transform="matrix(.45,0,0,.45,239.84998,351)" d="M140 67.1C140 104.2 108.7 134.3 70 134.3 31.3 134.3 0 104.2 0 67.1 0 30.1 31.3 0 70 0 108.7 0 140 30.1 140 67.1Z" fill="#ffffff"/>
<path transform="matrix(.45,0,0,.45,239.84998,351)" stroke-width="10" stroke-linecap="butt" stroke-miterlimit="4" stroke-linejoin="miter" fill="none" stroke="#282c33" d="M140 67.1C140 104.2 108.7 134.3 70 134.3 31.3 134.3 0 104.2 0 67.1 0 30.1 31.3 0 70 0 108.7 0 140 30.1 140 67.1Z"/>
<path transform="matrix(.0416655,0,0,.0416655,259.26298,384.5835)" d="M30-248C117-247 221-263 221-173 221-95 144-93 63-97V-48.5 0H30V-124-248ZM63-123C120-123 187-112 187-173 187-232 119-220 63-221V-172-123Z" fill="#282c33"/>
<path transform="matrix(.0416655,0,0,.0416655,269.2627,384.5835)" d="M177-190C167-65 218 103 67 71 44 65 29 51 23 28L55 23C70 70 155 55 144-5V-20-35C133-14 115 1 83 1 29 1 15-40 15-95 15-151 31-192 86-193 115-194 134-177 145-158 146-168 145-181 147-190H177ZM94-22C130-22 144-54 144-95 144-137 130-170 94-170 55-170 48-136 48-95 48-54 54-22 94-22Z" fill="#282c33"/>
<path transform="matrix(.029164499,0,0,.029164499,277.59599,386.6832)" d="M126-127C159-121 184-107 184-68 184 20 45 24 20-39 17-47 15-55 14-64L46-67C52-40 67-23 100-23 132-23 152-38 152-69 152-107 116-115 73-112V-126-140C112-139 145-144 145-182 145-209 128-225 99-225 71-225 52-210 50-184L18-187C24-229 53-250 99-251 147-252 178-230 178-186 178-150 157-134 126-127Z" fill="#282c33"/>
</g>
<path transform="matrix(.45,0,0,.45,140.84999,261)" stroke-width="6" stroke-linecap="butt" stroke-miterlimit="4" stroke-linejoin="miter" fill="none" stroke="#5e5e5e" d="M290 101.4V192"/>
<path transform="matrix(.45,0,0,.45,140.84999,261)" d="M293 101.4H287V98.4H293Z" fill="#5e5e5e"/>
<path transform="matrix(.45,0,0,.45,140.84999,261)" stroke-width=".05" stroke-linecap="butt" stroke-miterlimit="4" stroke-linejoin="miter" fill="none" stroke="#5e5e5e" d="M293 101.4H287V98.4H293Z"/>
<path transform="matrix(.45,0,0,.45,140.84999,261)" d="M293 195.1 290 195 287 195.1V191.9H293Z" fill="#5e5e5e"/>
<path transform="matrix(.45,0,0,.45,140.84999,261)" stroke-width=".05" stroke-linecap="butt" stroke-miterlimit="4" stroke-linejoin="miter" fill="none" stroke="#5e5e5e" d="M293 195.1 290 195 287 195.1V191.9H293Z"/>
<g clip-path="url(#clip_10)">
<path transform="matrix(.45,0,0,.45,446.13,27)" d="M140 67.1C140 104.2 108.7 134.3 70 134.3 31.3 134.3 0 104.2 0 67.1 0 30.1 31.3 0 70 0 108.7 0 140 30.1 140 67.1Z" fill="#ffffff"/>
<path transform="matrix(.45,0,0,.45,446.13,27)" stroke-width="10" stroke-linecap="butt" stroke-miterlimit="4" stroke-linejoin="miter" fill="none" stroke="#282c33" d="M140 67.1C140 104.2 108.7 134.3 70 134.3 31.3 134.3 0 104.2 0 67.1 0 30.1 31.3 0 70 0 108.7 0 140 30.1 140 67.1Z"/>
<path transform="matrix(.0416655,0,0,.0416655,465.543,60.583498)" d="M30-248C117-247 221-263 221-173 221-95 144-93 63-97V-48.5 0H30V-124-248ZM63-123C120-123 187-112 187-173 187-232 119-220 63-221V-172-123Z" fill="#282c33"/>
<path transform="matrix(.0416655,0,0,.0416655,475.54273,60.583498)" d="M177-190C167-65 218 103 67 71 44 65 29 51 23 28L55 23C70 70 155 55 144-5V-20-35C133-14 115 1 83 1 29 1 15-40 15-95 15-151 31-192 86-193 115-194 134-177 145-158 146-168 145-181 147-190H177ZM94-22C130-22 144-54 144-95 144-137 130-170 94-170 55-170 48-136 48-95 48-54 54-22 94-22Z" fill="#282c33"/>
<path transform="matrix(.029164499,0,0,.029164499,483.876,62.683198)" d="M101-251C183-258 194-164 144-119L82-64C71-53 59-42 53-27H182V-13.5 0H18C20-99 146-94 146-182 146-210 130-225 101-225 72-225 55-210 52-184L20-187C26-228 54-247 101-251Z" fill="#282c33"/>
</g>
<path transform="matrix(.45,0,0,.45,140.84999,261)" stroke-width="6" stroke-linecap="butt" stroke-miterlimit="4" stroke-linejoin="miter" fill="none" stroke="#5e5e5e" d="M748.4-377.7V-290.7"/>
<path transform="matrix(.45,0,0,.45,140.84999,261)" d="M748.4-380.7 751.4-380.8V-377.6H745.5V-380.8Z" fill="#5e5e5e"/>
<path transform="matrix(.45,0,0,.45,140.84999,261)" stroke-width=".05" stroke-linecap="butt" stroke-miterlimit="4" stroke-linejoin="miter" fill="none" stroke="#5e5e5e" d="M748.4-380.7 751.4-380.8V-377.6H745.5V-380.8Z"/>
<path transform="matrix(.45,0,0,.45,140.84999,261)" d="M751.4-287.7H745.5V-290.8H751.4Z" fill="#5e5e5e"/>
<path transform="matrix(.45,0,0,.45,140.84999,261)" stroke-width=".05" stroke-linecap="butt" stroke-miterlimit="4" stroke-linejoin="miter" fill="none" stroke="#5e5e5e" d="M751.4-287.7H745.5V-290.8H751.4Z"/>
<g clip-path="url(#clip_11)">
<path transform="matrix(.0416655,0,0,.0416655,52.721994,16.497)" d="M27 0V-13.5-27H91V-122-217L35-178V-192.5-207L93-248H122V-137.5-27H183V-13.5 0H27Z" fill="#282c33"/>
<path transform="matrix(.0416655,0,0,.0416655,61.05509,16.497)" d="M101-251C169-251 186-196 186-124 186-52 166 4 100 4 33 4 14-52 14-124 14-197 31-251 101-251ZM100-22C147-22 154-71 154-124 154-177 150-226 101-226 50-226 46-178 46-124 46-71 51-22 100-22Z" fill="#282c33"/>
<path transform="matrix(.0416655,0,0,.0416655,69.38819,16.497)" d="" fill="#282c33"/>
<path transform="matrix(.0416655,0,0,.0416655,73.55699,16.497)" d="M65-88C69-52 82-23 121-22 145-22 160-35 163-56L195-53C187-18 163 4 121 4 62 4 39-35 33-88H3L10-111H31C30-121 31-130 31-140H3L10-162H33C24-255 174-287 195-195L162-192C161-229 103-236 82-211 71-200 67-184 65-162H143L136-140H63V-125.5-111H143L136-88H65Z" fill="#282c33"/>
<path transform="matrix(.0416655,0,0,.0416655,81.89009,16.497)" d="M0 4 72-261H100L28 4H0Z" fill="#282c33"/>
<path transform="matrix(.0416655,0,0,.0416655,86.05664,16.497)" d="M240 0 242-218C219-142 188-73 162 0H139L58-218 59 0H30V-124-248H74L151-37C172-112 202-177 227-248H270V-124 0H240Z" fill="#282c33"/>
<path transform="matrix(.0416655,0,0,.0416655,98.514629,16.497)" d="M266 0H226L170-210 115 0H75L2-248H37L96-30 111-94 154-248H186L245-30 304-248H339Z" fill="#282c33"/>
<path transform="matrix(.0416655,0,0,.0416655,112.63923,16.497)" d="M106-169C34-169 62-67 57 0H25V-130.5-261H57L56-158C68-179 84-194 117-194 206-194 170-78 177 0H145V-60.5-121C147-153 137-170 106-169Z" fill="#282c33"/>
</g>
<g clip-path="url(#clip_12)">
<path transform="matrix(.0416655,0,0,.0416655,443.502,16.497)" d="M101-251C183-258 194-164 144-119L82-64C71-53 59-42 53-27H182V-13.5 0H18C20-99 146-94 146-182 146-210 130-225 101-225 72-225 55-210 52-184L20-187C26-228 54-247 101-251Z" fill="#282c33"/>
<path transform="matrix(.0416655,0,0,.0416655,451.8351,16.497)" d="M101-251C169-251 186-196 186-124 186-52 166 4 100 4 33 4 14-52 14-124 14-197 31-251 101-251ZM100-22C147-22 154-71 154-124 154-177 150-226 101-226 50-226 46-178 46-124 46-71 51-22 100-22Z" fill="#282c33"/>
<path transform="matrix(.0416655,0,0,.0416655,460.1682,16.497)" d="" fill="#282c33"/>
<path transform="matrix(.0416655,0,0,.0416655,464.337,16.497)" d="M65-88C69-52 82-23 121-22 145-22 160-35 163-56L195-53C187-18 163 4 121 4 62 4 39-35 33-88H3L10-111H31C30-121 31-130 31-140H3L10-162H33C24-255 174-287 195-195L162-192C161-229 103-236 82-211 71-200 67-184 65-162H143L136-140H63V-125.5-111H143L136-88H65Z" fill="#282c33"/>
<path transform="matrix(.0416655,0,0,.0416655,472.6701,16.497)" d="M0 4 72-261H100L28 4H0Z" fill="#282c33"/>
<path transform="matrix(.0416655,0,0,.0416655,476.83668,16.497)" d="M240 0 242-218C219-142 188-73 162 0H139L58-218 59 0H30V-124-248H74L151-37C172-112 202-177 227-248H270V-124 0H240Z" fill="#282c33"/>
<path transform="matrix(.0416655,0,0,.0416655,489.29466,16.497)" d="M266 0H226L170-210 115 0H75L2-248H37L96-30 111-94 154-248H186L245-30 304-248H339Z" fill="#282c33"/>
<path transform="matrix(.0416655,0,0,.0416655,503.41926,16.497)" d="M106-169C34-169 62-67 57 0H25V-130.5-261H57L56-158C68-179 84-194 117-194 206-194 170-78 177 0H145V-60.5-121C147-153 137-170 106-169Z" fill="#282c33"/>
</g>
<g clip-path="url(#clip_13)">
<path transform="matrix(.0416655,0,0,.0416655,233.05498,434.052)" d="M27 0V-13.5-27H91V-122-217L35-178V-192.5-207L93-248H122V-137.5-27H183V-13.5 0H27Z" fill="#282c33"/>
<path transform="matrix(.0416655,0,0,.0416655,241.38808,434.052)" d="M101-251C169-251 186-196 186-124 186-52 166 4 100 4 33 4 14-52 14-124 14-197 31-251 101-251ZM100-22C147-22 154-71 154-124 154-177 150-226 101-226 50-226 46-178 46-124 46-71 51-22 100-22Z" fill="#282c33"/>
<path transform="matrix(.0416655,0,0,.0416655,249.72118,434.052)" d="M101-251C169-251 186-196 186-124 186-52 166 4 100 4 33 4 14-52 14-124 14-197 31-251 101-251ZM100-22C147-22 154-71 154-124 154-177 150-226 101-226 50-226 46-178 46-124 46-71 51-22 100-22Z" fill="#282c33"/>
<path transform="matrix(.0416655,0,0,.0416655,258.05427,434.052)" d="" fill="#282c33"/>
<path transform="matrix(.0416655,0,0,.0416655,262.22398,434.052)" d="M65-88C69-52 82-23 121-22 145-22 160-35 163-56L195-53C187-18 163 4 121 4 62 4 39-35 33-88H3L10-111H31C30-121 31-130 31-140H3L10-162H33C24-255 174-287 195-195L162-192C161-229 103-236 82-211 71-200 67-184 65-162H143L136-140H63V-125.5-111H143L136-88H65Z" fill="#282c33"/>
<path transform="matrix(.0416655,0,0,.0416655,270.55708,434.052)" d="M0 4 72-261H100L28 4H0Z" fill="#282c33"/>
<path transform="matrix(.0416655,0,0,.0416655,274.72364,434.052)" d="M240 0 242-218C219-142 188-73 162 0H139L58-218 59 0H30V-124-248H74L151-37C172-112 202-177 227-248H270V-124 0H240Z" fill="#282c33"/>
<path transform="matrix(.0416655,0,0,.0416655,287.1816,434.052)" d="M266 0H226L170-210 115 0H75L2-248H37L96-30 111-94 154-248H186L245-30 304-248H339Z" fill="#282c33"/>
<path transform="matrix(.0416655,0,0,.0416655,301.3062,434.052)" d="M106-169C34-169 62-67 57 0H25V-130.5-261H57L56-158C68-179 84-194 117-194 206-194 170-78 177 0H145V-60.5-121C147-153 137-170 106-169Z" fill="#282c33"/>
</g>
<text fill-opacity="0" xml:space="preserve" transform="matrix(.45 0 -0 .45 0 0)" font-size="33.33" font-family="Helvetica"><tspan y="140.3" x="166.1 188.32">Pg</tspan></text>
<text fill-opacity="0" xml:space="preserve" transform="matrix(.45 0 -0 .45 0 0)" font-size="23.33" font-family="Helvetica"><tspan y="145" x="206.8">1</tspan></text>
<text fill-opacity="0" xml:space="preserve" transform="matrix(.45 0 -0 .45 0 0)" font-size="53.33" font-family="Helvetica"><tspan y="318.1" x="104.7">1</tspan></text>
<text fill-opacity="0" xml:space="preserve" transform="matrix(.45 0 -0 .45 0 0)" font-size="53.33" font-family="Helvetica"><tspan y="318.1" x="778.1">2</tspan></text>
<text fill-opacity="0" xml:space="preserve" transform="matrix(.45 0 -0 .45 0 0)" font-size="53.33" font-family="Helvetica"><tspan y="689" x="460.1">3</tspan></text>
<text fill-opacity="0" xml:space="preserve" transform="matrix(.45 0 -0 .45 0 0)" font-size="44.44" font-family="Helvetica"><tspan y="745.2" x="982.1 1006.79 1031.48 1056.1699 1068 1104.91">100 MW</tspan></text>
<text fill-opacity="0" xml:space="preserve" transform="matrix(.45 0 -0 .45 0 0)" font-size="33.33" font-family="Helvetica"><tspan y="467.9" x="321 330.259 337.573 356.083 380.06303 389.4 396.714 404.02799 431.70799 439.02198 448.28099 457.5 476.94 486.2 504.71003 523.22006 532.5 560.18">flow limit = 10 MW</tspan></text>
<text fill-opacity="0" xml:space="preserve" transform="matrix(.45 0 -0 .45 0 0)" font-size="33.33" font-family="Helvetica"><tspan y="854.6" x="576.1 598.31997">Pg</tspan></text>
<text fill-opacity="0" xml:space="preserve" transform="matrix(.45 0 -0 .45 0 0)" font-size="23.33" font-family="Helvetica"><tspan y="859.3" x="616.8">3</tspan></text>
<text fill-opacity="0" xml:space="preserve" transform="matrix(.45 0 -0 .45 0 0)" font-size="33.33" font-family="Helvetica"><tspan y="134.6" x="1034 1056.22">Pg</tspan></text>
<text fill-opacity="0" xml:space="preserve" transform="matrix(.45 0 -0 .45 0 0)" font-size="23.33" font-family="Helvetica"><tspan y="139.3" x="1075">2</tspan></text>
<text fill-opacity="0" xml:space="preserve" transform="matrix(.45 0 -0 .45 0 0)" font-size="33.33" font-family="Helvetica"><tspan y="36.66" x="117.1 135.61 154.12 163.4 181.90999 191.16899 218.849 250.229">10 ?/MWh</tspan></text>
<text fill-opacity="0" xml:space="preserve" transform="matrix(.45 0 -0 .45 0 0)" font-size="33.33" font-family="Helvetica"><tspan y="36.66" x="985.6 1004.11 1022.62 1031 1049.51 1058.769 1086.4491 1117.8291">20 ?/MWh</tspan></text>
<text fill-opacity="0" xml:space="preserve" transform="matrix(.45 0 -0 .45 0 0)" font-size="33.33" font-family="Helvetica"><tspan y="964.5" x="517.9 536.41006 554.92007 573.43008 582.7 601.21 610.469 638.149 669.529">100 ?/MWh</tspan></text>
</svg>
