<svg xmlns="http://www.w3.org/2000/svg" xmlns:xlink="http://www.w3.org/1999/xlink" version="1.1" width="533.2" height="444.1" viewBox="0 0 533.2 444.1">
<defs>
<clipPath id="clip_0">
<path transform="matrix(.45,0,0,.45,140.84999,261)" d="M-313.4-580H871.7V407.9H-313.4Z"/>
</clipPath>
<clipPath id="clip_1">
<path transform="matrix(.45,0,0,.45,140.84999,261)" d="M-313.4-580H871.7V407.9H-313.4Z"/>
</clipPath>
<clipPath id="clip_2">
<path transform="matrix(.45,0,0,.45,140.84999,261)" d="M-313.4-580H871.7V407.9H-313.4Z"/>
</clipPath>
<clipPath id="clip_3">
<path transform="matrix(.45,0,0,.45,140.84999,261)" d="M-313.4-580H871.7V407.9H-313.4Z"/>
</clipPath>
<clipPath id="clip_4">
<path transform="matrix(.45,0,0,.45,140.84999,261)" d="M-313.4-580H871.7V407.9H-313.4Z"/>
</clipPath>
<clipPath id="clip_5">
<path transform="matrix(.45,0,0,.45,140.84999,261)" d="M-313.4-580H871.7V407.9H-313.4Z"/>
</clipPath>
<clipPath id="clip_6">
<path transform="matrix(.45,0,0,.45,140.84999,261)" d="M-313.4-580H871.7V407.9H-313.4Z"/>
</clipPath>
<clipPath id="clip_7">
<path transform="matrix(.45,0,0,.45,140.84999,261)" d="M-313.4-580H871.7V407.9H-313.4Z"/>
</clipPath>
<clipPath id="clip_8">
<path transform="matrix(.45,0,0,.45,140.84999,261)" d="M-313.4-580H871.7V407.9H-313.4Z"/>
</clipPath>
<clipPath id="clip_9">
<path transform="matrix(.45,0,0,.45,140.84999,261)" d="M-313.4-580H871.7V407.9H-313.4Z"/>
</clipPath>
<clipPath id="clip_10">
<path transform="matrix(.45,0,0,.45,140.84999,261)" d="M-313.4-580H871.7V407.9H-313.4Z"/>
</clipPath>
<clipPath id="clip_11">
<path transform="matrix(.45,0,0,.45,140.84999,261)" d="M-313.4-580H871.7V407.9H-313.4Z"/>
</clipPath>
<clipPath id="clip_12">
<path transform="matrix(.45,0,0,.45,140.84999,261)" d="M-313.4-580H871.7V407.9H-313.4Z"/>
</clipPath>
<clipPath id="clip_13">
<path transform="matrix(.45,0,0,.45,140.84999,261)" d="M-313.4-580H871.7V407.9H-313.4Z"/>
</clipPath>
<clipPath id="clip_14">
<path transform="matrix(.45,0,0,.45,140.84999,261)" d="M-313.4-580H871.7V407.9H-313.4Z"/>
</clipPath>
</defs>
<path transform="matrix(.45,0,0,.45,0,0)" d="M0 0H1185V987H0Z" fill="#ffffff"/>
<path transform="matrix(.45,0,0,.45,140.84999,261)" stroke-width="6" stroke-linecap="butt" stroke-miterlimit="4" stroke-linejoin="miter" fill="none" stroke="#5e5e5e" d="M58.7-290.7V-360H561.9V-290.7"/>
<path transform="matrix(.45,0,0,.45,140.84999,261)" d="M61.6-287.7H55.7V-290.8H61.6Z" fill="#5e5e5e"/>
<path transform="matrix(.45,0,0,.45,140.84999,261)" stroke-width=".05" stroke-linecap="butt" stroke-miterlimit="4" stroke-linejoin="miter" fill="none" stroke="#5e5e5e" d="M61.6-287.7H55.7V-290.8H61.6Z"/>
<path transform="matrix(.45,0,0,.45,140.84999,261)" d="M564.8-287.7H558.9V-290.8H564.8Z" fill="#5e5e5e"/>
<path transform="matrix(.45,0,0,.45,140.84999,261)" stroke-width=".05" stroke-linecap="butt" stroke-miterlimit="4" stroke-linejoin="miter" fill="none" stroke="#5e5e5e" d="M564.8-287.7H558.9V-290.8H564.8Z"/>
<path transform="matrix(.45,0,0,.45,140.84999,261)" stroke-width="10" stroke-linecap="butt" stroke-miterlimit="4" stroke-linejoin="miter" fill="none" stroke="#5e5e5e" d="M388.8 103.4V160L596.3 157.9"/>
<path transform="matrix(.45,0,0,.45,140.84999,261)" d="M393.8 103.5H383.8V98.4H393.8Z" fill="#5e5e5e"/>
<path transform="matrix(.45,0,0,.45,140.84999,261)" stroke-width=".05" stroke-linecap="butt" stroke-miterlimit="4" stroke-linejoin="miter" fill="none" stroke="#5e5e5e" d="M393.8 103.5H383.8V98.4H393.8Z"/>
<path transform="matrix(.45,0,0,.45,140.84999,261)" d="M615.6 157.7 601.3 162.5V153.2Z" fill="#5e5e5e"/>
<path transform="matrix(.45,0,0,.45,140.84999,261)" stroke-width="10" stroke-linecap="butt" stroke-miterlimit="4" stroke-linejoin="miter" fill="none" stroke="#5e5e5e" d="M615.6 157.7 601.3 162.5V153.2Z"/>
<g clip-path="url(#clip_0)">
<path transform="matrix(.45,0,0,.45,59.84999,131.535)" stroke-width="10" stroke-linecap="round" stroke-miterlimit="4" stroke-linejoin="miter" fill="none" stroke="#282c33" d="M5 5H295"/>
</g>
<g clip-path="url(#clip_1)">
<path transform="matrix(.45,0,0,.45,55.34999,29.61)" d="M140 67.1C140 104.2 108.7 134.3 70 134.3 31.3 134.3 0 104.2 0 67.1 0 30.1 31.3 0 70 0 108.7 0 140 30.1 140 67.1Z" fill="#ffffff"/>
<path transform="matrix(.45,0,0,.45,55.34999,29.61)" stroke-width="10" stroke-linecap="butt" stroke-miterlimit="4" stroke-linejoin="miter" fill="none" stroke="#282c33" d="M140 67.1C140 104.2 108.7 134.3 70 134.3 31.3 134.3 0 104.2 0 67.1 0 30.1 31.3 0 70 0 108.7 0 140 30.1 140 67.1Z"/>
<path transform="matrix(.0416655,0,0,.0416655,58.97474,63.193498)" d="M27 0V-13.5-27H91V-122-217L35-178V-192.5-207L93-248H122V-137.5-27H183V-13.5 0H27Z" fill="#282c33"/>
<path transform="matrix(.0416655,0,0,.0416655,67.30784,63.193498)" d="M101-251C169-251 186-196 186-124 186-52 166 4 100 4 33 4 14-52 14-124 14-197 31-251 101-251ZM100-22C147-22 154-71 154-124 154-177 150-226 101-226 50-226 46-178 46-124 46-71 51-22 100-22Z" fill="#282c33"/>
<path transform="matrix(.0416655,0,0,.0416655,75.64094,63.193498)" d="M101-251C169-251 186-196 186-124 186-52 166 4 100 4 33 4 14-52 14-124 14-197 31-251 101-251ZM100-22C147-22 154-71 154-124 154-177 150-226 101-226 50-226 46-178 46-124 46-71 51-22 100-22Z" fill="#282c33"/>
<path transform="matrix(.0416655,0,0,.0416655,83.97404,63.193498)" d="" fill="#282c33"/>
<path transform="matrix(.0416655,0,0,.0416655,88.141498,63.193498)" d="M240 0 242-218C219-142 188-73 162 0H139L58-218 59 0H30V-124-248H74L151-37C172-112 202-177 227-248H270V-124 0H240Z" fill="#282c33"/>
<path transform="matrix(.0416655,0,0,.0416655,100.59948,63.193498)" d="M266 0H226L170-210 115 0H75L2-248H37L96-30 111-94 154-248H186L245-30 304-248H339Z" fill="#282c33"/>
</g>
<path transform="matrix(.45,0,0,.45,140.84999,261)" stroke-width="6" stroke-linecap="butt" stroke-miterlimit="4" stroke-linejoin="miter" fill="none" stroke="#5e5e5e" d="M-120-372V-290.7"/>
<path transform="matrix(.45,0,0,.45,140.84999,261)" d="M-120-375-117-375.1V-371.9H-123V-375.1Z" fill="#5e5e5e"/>
<path transform="matrix(.45,0,0,.45,140.84999,261)" stroke-width=".05" stroke-linecap="butt" stroke-miterlimit="4" stroke-linejoin="miter" fill="none" stroke="#5e5e5e" d="M-120-375-117-375.1V-371.9H-123V-375.1Z"/>
<path transform="matrix(.45,0,0,.45,140.84999,261)" d="M-117-287.7H-123V-290.8H-117Z" fill="#5e5e5e"/>
<path transform="matrix(.45,0,0,.45,140.84999,261)" stroke-width=".05" stroke-linecap="butt" stroke-miterlimit="4" stroke-linejoin="miter" fill="none" stroke="#5e5e5e" d="M-117-287.7H-123V-290.8H-117Z"/>
<g clip-path="url(#clip_2)">
<path transform="matrix(.066645,0,0,.066645,47.11499,143.172)" d="M27 0V-13.5-27H91V-122-217L35-178V-192.5-207L93-248H122V-137.5-27H183V-13.5 0H27Z" fill="#282c33"/>
</g>
<g clip-path="url(#clip_3)">
<path transform="matrix(.45,0,0,.45,365.84999,131.535)" stroke-width="10" stroke-linecap="round" stroke-miterlimit="4" stroke-linejoin="miter" fill="none" stroke="#282c33" d="M5 5H295"/>
</g>
<g clip-path="url(#clip_4)">
<path transform="matrix(.066645,0,0,.066645,350.14497,143.172)" d="M101-251C183-258 194-164 144-119L82-64C71-53 59-42 53-27H182V-13.5 0H18C20-99 146-94 146-182 146-210 130-225 101-225 72-225 55-210 52-184L20-187C26-228 54-247 101-251Z" fill="#282c33"/>
</g>
<g clip-path="url(#clip_5)">
<path transform="matrix(.45,0,0,.45,222.70499,300.7575)" stroke-width="10" stroke-linecap="round" stroke-miterlimit="4" stroke-linejoin="miter" fill="none" stroke="#282c33" d="M5 5H295"/>
</g>
<g clip-path="url(#clip_6)">
<path transform="matrix(.066645,0,0,.066645,207.04048,310.05448)" d="M126-127C159-121 184-107 184-68 184 20 45 24 20-39 17-47 15-55 14-64L46-67C52-40 67-23 100-23 132-23 152-38 152-69 152-107 116-115 73-112V-126-140C112-139 145-144 145-182 145-209 128-225 99-225 71-225 52-210 50-184L18-187C24-229 53-250 99-251 147-252 178-230 178-186 178-150 157-134 126-127Z" fill="#282c33"/>
</g>
<path transform="matrix(.45,0,0,.45,140.84999,261)" stroke-width="6" stroke-linecap="butt" stroke-miterlimit="4" stroke-linejoin="miter" fill="none" stroke="#5e5e5e" d="M660-274.7V-220L420 20 420.2 85.4"/>
<path transform="matrix(.45,0,0,.45,140.84999,261)" d="M663-274.6H657.1V-277.7H663Z" fill="#5e5e5e"/>
<path transform="matrix(.45,0,0,.45,140.84999,261)" stroke-width=".05" stroke-linecap="butt" stroke-miterlimit="4" stroke-linejoin="miter" fill="none" stroke="#5e5e5e" d="M663-274.6H657.1V-277.7H663Z"/>
<path transform="matrix(.45,0,0,.45,140.84999,261)" d="M423.2 88.4H417.3V85.3H423.2Z" fill="#5e5e5e"/>
<path transform="matrix(.45,0,0,.45,140.84999,261)" stroke-width=".05" stroke-linecap="butt" stroke-miterlimit="4" stroke-linejoin="miter" fill="none" stroke="#5e5e5e" d="M423.2 88.4H417.3V85.3H423.2Z"/>
<g clip-path="url(#clip_7)">
<path transform="matrix(.05553,0,0,.05553,441.94499,335.331)" d="M27 0V-13.5-27H91V-122-217L35-178V-192.5-207L93-248H122V-137.5-27H183V-13.5 0H27Z" fill="#282c33"/>
<path transform="matrix(.05553,0,0,.05553,453.05097,335.331)" d="M101-251C169-251 186-196 186-124 186-52 166 4 100 4 33 4 14-52 14-124 14-197 31-251 101-251ZM100-22C147-22 154-71 154-124 154-177 150-226 101-226 50-226 46-178 46-124 46-71 51-22 100-22Z" fill="#282c33"/>
<path transform="matrix(.05553,0,0,.05553,464.15699,335.331)" d="M101-251C169-251 186-196 186-124 186-52 166 4 100 4 33 4 14-52 14-124 14-197 31-251 101-251ZM100-22C147-22 154-71 154-124 154-177 150-226 101-226 50-226 46-178 46-124 46-71 51-22 100-22Z" fill="#282c33"/>
<path transform="matrix(.05553,0,0,.05553,475.26298,335.331)" d="" fill="#282c33"/>
<path transform="matrix(.05553,0,0,.05553,480.82499,335.331)" d="M240 0 242-218C219-142 188-73 162 0H139L58-218 59 0H30V-124-248H74L151-37C172-112 202-177 227-248H270V-124 0H240Z" fill="#282c33"/>
<path transform="matrix(.05553,0,0,.05553,497.42848,335.331)" d="M266 0H226L170-210 115 0H75L2-248H37L96-30 111-94 154-248H186L245-30 304-248H339Z" fill="#282c33"/>
</g>
<g clip-path="url(#clip_8)">
<path transform="matrix(.45,0,0,.45,239.84998,351)" d="M140 67.1C140 104.2 108.7 134.3 70 134.3 31.3 134.3 0 104.2 0 67.1 0 30.1 31.3 0 70 0 108.7 0 140 30.1 140 67.1Z" fill="#ffffff"/>
<path transform="matrix(.45,0,0,.45,239.84998,351)" stroke-width="10" stroke-linecap="butt" stroke-miterlimit="4" stroke-linejoin="miter" fill="none" stroke="#282c33" d="M140 67.1C140 104.2 108.7 134.3 70 134.3 31.3 134.3 0 104.2 0 67.1 0 30.1 31.3 0 70 0 108.7 0 140 30.1 140 67.1Z"/>
<path transform="matrix(.0416655,0,0,.0416655,251.80648,384.5835)" d="M101-251C169-251 186-196 186-124 186-52 166 4 100 4 33 4 14-52 14-124 14-197 31-251 101-251ZM100-22C147-22 154-71 154-124 154-177 150-226 101-226 50-226 46-178 46-124 46-71 51-22 100-22Z" fill="#282c33"/>
<path transform="matrix(.0416655,0,0,.0416655,260.1396,384.5835)" d="" fill="#282c33"/>
<path transform="matrix(.0416655,0,0,.0416655,264.30747,384.5835)" d="M240 0 242-218C219-142 188-73 162 0H139L58-218 59 0H30V-124-248H74L151-37C172-112 202-177 227-248H270V-124 0H240Z" fill="#282c33"/>
<path transform="matrix(.0416655,0,0,.0416655,276.76545,384.5835)" d="M266 0H226L170-210 115 0H75L2-248H37L96-30 111-94 154-248H186L245-30 304-248H339Z" fill="#282c33"/>
</g>
<path transform="matrix(.45,0,0,.45,140.84999,261)" stroke-width="6" stroke-linecap="butt" stroke-miterlimit="4" stroke-linejoin="miter" fill="none" stroke="#5e5e5e" d="M290 101.4V192"/>
<path transform="matrix(.45,0,0,.45,140.84999,261)" d="M293 101.4H287V98.4H293Z" fill="#5e5e5e"/>
<path transform="matrix(.45,0,0,.45,140.84999,261)" stroke-width=".05" stroke-linecap="butt" stroke-miterlimit="4" stroke-linejoin="miter" fill="none" stroke="#5e5e5e" d="M293 101.4H287V98.4H293Z"/>
<path transform="matrix(.45,0,0,.45,140.84999,261)" d="M293 195.1 290 195 287 195.1V191.9H293Z" fill="#5e5e5e"/>
<path transform="matrix(.45,0,0,.45,140.84999,261)" stroke-width=".05" stroke-linecap="butt" stroke-miterlimit="4" stroke-linejoin="miter" fill="none" stroke="#5e5e5e" d="M293 195.1 290 195 287 195.1V191.9H293Z"/>
<g clip-path="url(#clip_9)">
<path transform="matrix(.45,0,0,.45,446.13,27)" d="M140 67.1C140 104.2 108.7 134.3 70 134.3 31.3 134.3 0 104.2 0 67.1 0 30.1 31.3 0 70 0 108.7 0 140 30.1 140 67.1Z" fill="#ffffff"/>
<path transform="matrix(.45,0,0,.45,446.13,27)" stroke-width="10" stroke-linecap="butt" stroke-miterlimit="4" stroke-linejoin="miter" fill="none" stroke="#282c33" d="M140 67.1C140 104.2 108.7 134.3 70 134.3 31.3 134.3 0 104.2 0 67.1 0 30.1 31.3 0 70 0 108.7 0 140 30.1 140 67.1Z"/>
<path transform="matrix(.0416655,0,0,.0416655,458.08653,60.583498)" d="M101-251C169-251 186-196 186-124 186-52 166 4 100 4 33 4 14-52 14-124 14-197 31-251 101-251ZM100-22C147-22 154-71 154-124 154-177 150-226 101-226 50-226 46-178 46-124 46-71 51-22 100-22Z" fill="#282c33"/>
<path transform="matrix(.0416655,0,0,.0416655,466.41963,60.583498)" d="" fill="#282c33"/>
<path transform="matrix(.0416655,0,0,.0416655,470.5875,60.583498)" d="M240 0 242-218C219-142 188-73 162 0H139L58-218 59 0H30V-124-248H74L151-37C172-112 202-177 227-248H270V-124 0H240Z" fill="#282c33"/>
<path transform="matrix(.0416655,0,0,.0416655,483.04548,60.583498)" d="M266 0H226L170-210 115 0H75L2-248H37L96-30 111-94 154-248H186L245-30 304-248H339Z" fill="#282c33"/>
</g>
<path transform="matrix(.45,0,0,.45,140.84999,261)" stroke-width="6" stroke-linecap="butt" stroke-miterlimit="4" stroke-linejoin="miter" fill="none" stroke="#5e5e5e" d="M748.4-377.7V-290.7"/>
<path transform="matrix(.45,0,0,.45,140.84999,261)" d="M748.4-380.7 751.4-380.8V-377.6H745.5V-380.8Z" fill="#5e5e5e"/>
<path transform="matrix(.45,0,0,.45,140.84999,261)" stroke-width=".05" stroke-linecap="butt" stroke-miterlimit="4" stroke-linejoin="miter" fill="none" stroke="#5e5e5e" d="M748.4-380.7 751.4-380.8V-377.6H745.5V-380.8Z"/>
<path transform="matrix(.45,0,0,.45,140.84999,261)" d="M751.4-287.7H745.5V-290.8H751.4Z" fill="#5e5e5e"/>
<path transform="matrix(.45,0,0,.45,140.84999,261)" stroke-width=".05" stroke-linecap="butt" stroke-miterlimit="4" stroke-linejoin="miter" fill="none" stroke="#5e5e5e" d="M751.4-287.7H745.5V-290.8H751.4Z"/>
<g clip-path="url(#clip_10)">
<path transform="matrix(.0416655,0,0,.0416655,52.721994,16.497)" d="M27 0V-13.5-27H91V-122-217L35-178V-192.5-207L93-248H122V-137.5-27H183V-13.5 0H27Z" fill="#282c33"/>
<path transform="matrix(.0416655,0,0,.0416655,61.05509,16.497)" d="M101-251C169-251 186-196 186-124 186-52 166 4 100 4 33 4 14-52 14-124 14-197 31-251 101-251ZM100-22C147-22 154-71 154-124 154-177 150-226 101-226 50-226 46-178 46-124 46-71 51-22 100-22Z" fill="#282c33"/>
<path transform="matrix(.0416655,0,0,.0416655,69.38819,16.497)" d="" fill="#282c33"/>
<path transform="matrix(.0416655,0,0,.0416655,73.55699,16.497)" d="M65-88C69-52 82-23 121-22 145-22 160-35 163-56L195-53C187-18 163 4 121 4 62 4 39-35 33-88H3L10-111H31C30-121 31-130 31-140H3L10-162H33C24-255 174-287 195-195L162-192C161-229 103-236 82-211 71-200 67-184 65-162H143L136-140H63V-125.5-111H143L136-88H65Z" fill="#282c33"/>
<path transform="matrix(.0416655,0,0,.0416655,81.89009,16.497)" d="M0 4 72-261H100L28 4H0Z" fill="#282c33"/>
<path transform="matrix(.0416655,0,0,.0416655,86.05664,16.497)" d="M240 0 242-218C219-142 188-73 162 0H139L58-218 59 0H30V-124-248H74L151-37C172-112 202-177 227-248H270V-124 0H240Z" fill="#282c33"/>
<path transform="matrix(.0416655,0,0,.0416655,98.514629,16.497)" d="M266 0H226L170-210 115 0H75L2-248H37L96-30 111-94 154-248H186L245-30 304-248H339Z" fill="#282c33"/>
<path transform="matrix(.0416655,0,0,.0416655,112.63923,16.497)" d="M106-169C34-169 62-67 57 0H25V-130.5-261H57L56-158C68-179 84-194 117-194 206-194 170-78 177 0H145V-60.5-121C147-153 137-170 106-169Z" fill="#282c33"/>
</g>
<g clip-path="url(#clip_11)">
<path transform="matrix(.0416655,0,0,.0416655,443.502,16.497)" d="M101-251C183-258 194-164 144-119L82-64C71-53 59-42 53-27H182V-13.5 0H18C20-99 146-94 146-182 146-210 130-225 101-225 72-225 55-210 52-184L20-187C26-228 54-247 101-251Z" fill="#282c33"/>
<path transform="matrix(.0416655,0,0,.0416655,451.8351,16.497)" d="M101-251C169-251 186-196 186-124 186-52 166 4 100 4 33 4 14-52 14-124 14-197 31-251 101-251ZM100-22C147-22 154-71 154-124 154-177 150-226 101-226 50-226 46-178 46-124 46-71 51-22 100-22Z" fill="#282c33"/>
<path transform="matrix(.0416655,0,0,.0416655,460.1682,16.497)" d="" fill="#282c33"/>
<path transform="matrix(.0416655,0,0,.0416655,464.337,16.497)" d="M65-88C69-52 82-23 121-22 145-22 160-35 163-56L195-53C187-18 163 4 121 4 62 4 39-35 33-88H3L10-111H31C30-121 31-130 31-140H3L10-162H33C24-255 174-287 195-195L162-192C161-229 103-236 82-211 71-200 67-184 65-162H143L136-140H63V-125.5-111H143L136-88H65Z" fill="#282c33"/>
<path transform="matrix(.0416655,0,0,.0416655,472.6701,16.497)" d="M0 4 72-261H100L28 4H0Z" fill="#282c33"/>
<path transform="matrix(.0416655,0,0,.0416655,476.83668,16.497)" d="M240 0 242-218C219-142 188-73 162 0H139L58-218 59 0H30V-124-248H74L151-37C172-112 202-177 227-248H270V-124 0H240Z" fill="#282c33"/>
<path transform="matrix(.0416655,0,0,.0416655,489.29466,16.497)" d="M266 0H226L170-210 115 0H75L2-248H37L96-30 111-94 154-248H186L245-30 304-248H339Z" fill="#282c33"/>
<path transform="matrix(.0416655,0,0,.0416655,503.41926,16.497)" d="M106-169C34-169 62-67 57 0H25V-130.5-261H57L56-158C68-179 84-194 117-194 206-194 170-78 177 0H145V-60.5-121C147-153 137-170 106-169Z" fill="#282c33"/>
</g>
<g clip-path="url(#clip_12)">
<path transform="matrix(.0416655,0,0,.0416655,233.05498,434.052)" d="M27 0V-13.5-27H91V-122-217L35-178V-192.5-207L93-248H122V-137.5-27H183V-13.5 0H27Z" fill="#282c33"/>
<path transform="matrix(.0416655,0,0,.0416655,241.38808,434.052)" d="M101-251C169-251 186-196 186-124 186-52 166 4 100 4 33 4 14-52 14-124 14-197 31-251 101-251ZM100-22C147-22 154-71 154-124 154-177 150-226 101-226 50-226 46-178 46-124 46-71 51-22 100-22Z" fill="#282c33"/>
<path transform="matrix(.0416655,0,0,.0416655,249.72118,434.052)" d="M101-251C169-251 186-196 186-124 186-52 166 4 100 4 33 4 14-52 14-124 14-197 31-251 101-251ZM100-22C147-22 154-71 154-124 154-177 150-226 101-226 50-226 46-178 46-124 46-71 51-22 100-22Z" fill="#282c33"/>
<path transform="matrix(.0416655,0,0,.0416655,258.05427,434.052)" d="" fill="#282c33"/>
<path transform="matrix(.0416655,0,0,.0416655,262.22398,434.052)" d="M65-88C69-52 82-23 121-22 145-22 160-35 163-56L195-53C187-18 163 4 121 4 62 4 39-35 33-88H3L10-111H31C30-121 31-130 31-140H3L10-162H33C24-255 174-287 195-195L162-192C161-229 103-236 82-211 71-200 67-184 65-162H143L136-140H63V-125.5-111H143L136-88H65Z" fill="#282c33"/>
<path transform="matrix(.0416655,0,0,.0416655,270.55708,434.052)" d="M0 4 72-261H100L28 4H0Z" fill="#282c33"/>
<path transform="matrix(.0416655,0,0,.0416655,274.72364,434.052)" d="M240 0 242-218C219-142 188-73 162 0H139L58-218 59 0H30V-124-248H74L151-37C172-112 202-177 227-248H270V-124 0H240Z" fill="#282c33"/>
<path transform="matrix(.0416655,0,0,.0416655,287.1816,434.052)" d="M266 0H226L170-210 115 0H75L2-248H37L96-30 111-94 154-248H186L245-30 304-248H339Z" fill="#282c33"/>
<path transform="matrix(.0416655,0,0,.0416655,301.3062,434.052)" d="M106-169C34-169 62-67 57 0H25V-130.5-261H57L56-158C68-179 84-194 117-194 206-194 170-78 177 0H145V-60.5-121C147-153 137-170 106-169Z" fill="#282c33"/>
</g>
<path transform="matrix(.45,0,0,.45,140.84999,261)" stroke-width="2" stroke-linecap="butt" stroke-miterlimit="4" stroke-linejoin="miter" fill="none" stroke="#5e5e5e" d="M161-374.9H441.5"/>
<path transform="matrix(.45,0,0,.45,140.84999,261)" stroke-width="2" stroke-linecap="butt" stroke-miterlimit="4" stroke-linejoin="miter" fill="none" stroke="#5e5e5e" d="M161-374.9H160"/>
<path transform="matrix(.45,0,0,.45,140.84999,261)" d="M456.8-374.9 442.5-370.2V-379.5Z" fill="#5e5e5e"/>
<path transform="matrix(.45,0,0,.45,140.84999,261)" stroke-width="2" stroke-linecap="butt" stroke-miterlimit="4" stroke-linejoin="miter" fill="none" stroke="#5e5e5e" d="M456.8-374.9 442.5-370.2V-379.5Z"/>
<g clip-path="url(#clip_13)">
<path transform="matrix(.0416655,0,0,.0416655,254.36249,88.497)" d="M27 0V-13.5-27H91V-122-217L35-178V-192.5-207L93-248H122V-137.5-27H183V-13.5 0H27Z" fill="#282c33"/>
<path transform="matrix(.0416655,0,0,.0416655,262.6956,88.497)" d="M101-251C169-251 186-196 186-124 186-52 166 4 100 4 33 4 14-52 14-124 14-197 31-251 101-251ZM100-22C147-22 154-71 154-124 154-177 150-226 101-226 50-226 46-178 46-124 46-71 51-22 100-22Z" fill="#282c33"/>
<path transform="matrix(.0416655,0,0,.0416655,271.0287,88.497)" d="M101-251C169-251 186-196 186-124 186-52 166 4 100 4 33 4 14-52 14-124 14-197 31-251 101-251ZM100-22C147-22 154-71 154-124 154-177 150-226 101-226 50-226 46-178 46-124 46-71 51-22 100-22Z" fill="#282c33"/>
<path transform="matrix(.0416655,0,0,.0416655,279.3618,88.497)" d="" fill="#282c33"/>
<path transform="matrix(.0416655,0,0,.0416655,283.5,88.497)" d="M240 0 242-218C219-142 188-73 162 0H139L58-218 59 0H30V-124-248H74L151-37C172-112 202-177 227-248H270V-124 0H240Z" fill="#282c33"/>
<path transform="matrix(.0416655,0,0,.0416655,295.95799,88.497)" d="M266 0H226L170-210 115 0H75L2-248H37L96-30 111-94 154-248H186L245-30 304-248H339Z" fill="#282c33"/>
</g>
<path transform="matrix(.45,0,0,.45,140.84999,261)" stroke-width="2" stroke-linecap="butt" stroke-miterlimit="4" stroke-linejoin="miter" fill="none" stroke="#5e5e5e" d="M631.1-168.3 504.8-42.1"/>
<path transform="matrix(.45,0,0,.45,140.84999,261)" stroke-width="2" stroke-linecap="butt" stroke-miterlimit="4" stroke-linejoin="miter" fill="none" stroke="#5e5e5e" d="M631-168.3 631.8-169"/>
<path transform="matrix(.45,0,0,.45,140.84999,261)" d="M494-31.3 500.9-44.7 507.4-38.1Z" fill="#5e5e5e"/>
<path transform="matrix(.45,0,0,.45,140.84999,261)" stroke-width="2" stroke-linecap="butt" stroke-miterlimit="4" stroke-linejoin="miter" fill="none" stroke="#5e5e5e" d="M494-31.3 500.9-44.7 507.4-38.1Z"/>
<g clip-path="url(#clip_14)">
<path transform="matrix(.029461107,-.029461107,.029461107,.029461107,386.95509,247.54689)" d="M27 0V-13.5-27H91V-122-217L35-178V-192.5-207L93-248H122V-137.5-27H183V-13.5 0H27Z" fill="#282c33"/>
<path transform="matrix(.029461107,-.029461107,.029461107,.029461107,392.8473,241.65467)" d="M101-251C169-251 186-196 186-124 186-52 166 4 100 4 33 4 14-52 14-124 14-197 31-251 101-251ZM100-22C147-22 154-71 154-124 154-177 150-226 101-226 50-226 46-178 46-124 46-71 51-22 100-22Z" fill="#282c33"/>
<path transform="matrix(.029461107,-.029461107,.029461107,.029461107,398.73954,235.76245)" d="M101-251C169-251 186-196 186-124 186-52 166 4 100 4 33 4 14-52 14-124 14-197 31-251 101-251ZM100-22C147-22 154-71 154-124 154-177 150-226 101-226 50-226 46-178 46-124 46-71 51-22 100-22Z" fill="#282c33"/>
<path transform="matrix(.029461107,-.029461107,.029461107,.029461107,404.63175,229.87023)" d="" fill="#282c33"/>
<path transform="matrix(.029461107,-.029461107,.029461107,.029461107,407.5578,226.94417)" d="M240 0 242-218C219-142 188-73 162 0H139L58-218 59 0H30V-124-248H74L151-37C172-112 202-177 227-248H270V-124 0H240Z" fill="#282c33"/>
<path transform="matrix(.029461107,-.029461107,.029461107,.029461107,416.36668,218.1353)" d="M266 0H226L170-210 115 0H75L2-248H37L96-30 111-94 154-248H186L245-30 304-248H339Z" fill="#282c33"/>
</g>
<text fill-opacity="0" xml:space="preserve" transform="matrix(.45 0 -0 .45 0 0)" font-size="33.33" font-family="Helvetica"><tspan y="140.3" x="131 149.51 168.01999 186.52999 195.8 223.48001">100 MW</tspan></text>
<text fill-opacity="0" xml:space="preserve" transform="matrix(.45 0 -0 .45 0 0)" font-size="53.33" font-family="Helvetica"><tspan y="318.1" x="104.7">1</tspan></text>
<text fill-opacity="0" xml:space="preserve" transform="matrix(.45 0 -0 .45 0 0)" font-size="53.33" font-family="Helvetica"><tspan y="318.1" x="778.1">2</tspan></text>
<text fill-opacity="0" xml:space="preserve" transform="matrix(.45 0 -0 .45 0 0)" font-size="53.33" font-family="Helvetica"><tspan y="689" x="460.1">3</tspan></text>
<text fill-opacity="0" xml:space="preserve" transform="matrix(.45 0 -0 .45 0 0)" font-size="44.44" font-family="Helvetica"><tspan y="745.2" x="982.1 1006.79 1031.48 1056.1699 1068 1104.91">100 MW</tspan></text>
<text fill-opacity="0" xml:space="preserve" transform="matrix(.45 0 -0 .45 0 0)" font-size="33.33" font-family="Helvetica"><tspan y="854.6" x="559.5 578.01 587.3 614.98">0 MW</tspan></text>
<text fill-opacity="0" xml:space="preserve" transform="matrix(.45 0 -0 .45 0 0)" font-size="33.33" font-family="Helvetica"><tspan y="134.6" x="1018 1036.51 1045 1072.68">0 MW</tspan></text>
<text fill-opacity="0" xml:space="preserve" transform="matrix(.45 0 -0 .45 0 0)" font-size="33.33" font-family="Helvetica"><tspan y="36.66" x="117.1 135.61 154.12 163.4 181.90999 191.16899 218.849 250.229">10 ?/MWh</tspan></text>
<text fill-opacity="0" xml:space="preserve" transform="matrix(.45 0 -0 .45 0 0)" font-size="33.33" font-family="Helvetica"><tspan y="36.66" x="985.6 1004.11 1022.62 1031 1049.51 1058.769 1086.4491 1117.8291">20 ?/MWh</tspan></text>
<text fill-opacity="0" xml:space="preserve" transform="matrix(.45 0 -0 .45 0 0)" font-size="33.33" font-family="Helvetica"><tspan y="964.5" x="517.9 536.41006 554.92007 573.43008 582.7 601.21 610.469 638.149 669.529">100 ?/MWh</tspan></text>
<text fill-opacity="0" xml:space="preserve" transform="matrix(.45 0 -0 .45 0 0)" font-size="33.33" font-family="Helvetica"><tspan y="196.6" x="565.2 583.71 602.22006 620.73007 630 657.68">100 MW</tspan></text>
<text fill-opacity="0" xml:space="preserve" transform="matrix(.45 0 -0 .45 0 0)" font-size="33.33" font-family="Helvetica"><tspan y="508.1" x="837.1 855.61 874.12 892.63 901.9 929.58">100 MW</tspan></text>
</svg>
